<?xml version="1.0" encoding="UTF-8" standalone="no"?>
<svg
   xmlns:dc="http://purl.org/dc/elements/1.1/"
   xmlns:cc="http://creativecommons.org/ns#"
   xmlns:rdf="http://www.w3.org/1999/02/22-rdf-syntax-ns#"
   xmlns:svg="http://www.w3.org/2000/svg"
   xmlns="http://www.w3.org/2000/svg"
   xmlns:sodipodi="http://sodipodi.sourceforge.net/DTD/sodipodi-0.dtd"
   xmlns:inkscape="http://www.inkscape.org/namespaces/inkscape"
   width="155.04527"
   height="200"
   viewBox="0 0 155.04527 200"
   fill="none"
   version="1.1"
   id="svg895"
   sodipodi:docname="logo-brasileirao-vertical-branco-2024.svg"
   inkscape:version="1.0.1 (3bc2e813f5, 2020-09-07)">
  <metadata
     id="metadata901">
    <rdf:RDF>
      <cc:Work
         rdf:about="">
        <dc:format>image/svg+xml</dc:format>
        <dc:type
           rdf:resource="http://purl.org/dc/dcmitype/StillImage" />
      </cc:Work>
    </rdf:RDF>
  </metadata>
  <defs
     id="defs899" />
  <sodipodi:namedview
     pagecolor="#ffffff"
     bordercolor="#666666"
     borderopacity="1"
     objecttolerance="10"
     gridtolerance="10"
     guidetolerance="10"
     inkscape:pageopacity="0"
     inkscape:pageshadow="2"
     inkscape:window-width="1360"
     inkscape:window-height="706"
     id="namedview897"
     showgrid="false"
     inkscape:zoom="1"
     inkscape:cx="35"
     inkscape:cy="-22.813807"
     inkscape:window-x="-8"
     inkscape:window-y="-8"
     inkscape:window-maximized="1"
     inkscape:current-layer="svg895" />
  <path
     d="m 10.285682,162.74218 c 2.390599,0 4.188039,0.71564 4.188039,2.82691 v 0.34908 c 0,0.99494 -0.418955,1.65787 -1.308671,2.16399 v 0.41884 c 1.046644,0.48884 1.518159,1.30858 1.518159,2.40785 v 0.50612 c 0,1.81469 -1.378507,3.01895 -4.170784,3.01895 H 1.6828305 v -11.69086 h 8.6028515 z m -5.1303377,4.60706 h 4.501917 c 0.7327887,0 1.2561107,-0.22681 1.2561107,-0.87247 v -0.29658 c 0,-0.61043 -0.523322,-0.85518 -1.2561107,-0.85518 h -4.501917 z m 0,4.50185 h 4.5890082 c 0.8724615,0 1.3957845,-0.29658 1.3957845,-0.97679 v -0.2793 c 0,-0.71543 -0.523323,-0.94223 -1.3957845,-0.94223 H 5.1553443 Z"
     fill="white"
     id="path833"
     style="fill:#131428;fill-opacity:1;stroke-width:2.21493" />
  <path
     d="m 25.398411,162.74218 c 2.634662,0 4.118224,1.50106 4.118224,3.55961 v 0.55861 c 0,1.43107 -0.732921,2.60011 -1.971733,3.19327 l 2.460569,4.37958 H 26.06134 l -2.233759,-3.97868 h -3.664606 v 3.97868 h -3.559641 v -11.69107 h 8.794413 z m -5.234727,4.9734 h 4.414759 c 0.924956,0 1.344021,-0.33179 1.344021,-1.012 v -0.22681 c 0,-0.62837 -0.419065,-1.02928 -1.344021,-1.02928 h -4.414759 z"
     fill="white"
     id="path835"
     style="fill:#131428;fill-opacity:1;stroke-width:2.21493" />
  <path
     d="m 40.997739,162.74218 5.025239,11.69107 h -3.507125 l -0.942232,-2.19832 h -6.613124 l -0.942454,2.19832 h -3.368027 l 5.025239,-11.69107 h 5.321819 z m -4.833648,6.71833 h 4.205271 l -1.744924,-4.04846 h -0.732921 z"
     fill="white"
     id="path837"
     style="fill:#131428;fill-opacity:1;stroke-width:2.21493" />
  <path
     d="m 53.262042,162.56808 c 3.682104,0 6.089957,1.23881 6.089957,3.90869 v 0.29658 h -3.419856 v -0.29658 c 0,-0.97678 -1.064718,-1.25609 -2.687377,-1.25609 h -0.418844 c -1.69243,0 -2.704433,0.26203 -2.704433,0.78542 v 0.13954 c 0,0.68021 0.662929,0.81997 4.118224,1.20426 3.751875,0.45362 5.321819,1.46562 5.321819,3.50712 v 0.17432 c 0,2.16377 -2.111274,3.57689 -6.212222,3.57689 h -0.436341 c -4.257765,0 -6.386316,-1.43106 -6.386316,-4.083 v -0.26203 h 3.40258 v 0.26203 c 0,1.16904 1.081994,1.41379 3.001012,1.41379 h 0.419065 c 1.727648,0 2.756927,-0.22681 2.756927,-0.83791 v -0.15704 c 0,-0.64565 -0.942232,-0.81975 -4.205271,-1.16904 -3.455295,-0.34907 -5.217495,-1.3438 -5.217495,-3.45507 v -0.15704 c 0,-2.33809 2.355359,-3.59484 6.142451,-3.59484 z"
     fill="white"
     id="path839"
     style="fill:#131428;fill-opacity:1;stroke-width:2.21493" />
  <path
     d="m 70.24083,162.74218 v 2.89668 h -2.826919 v 5.89771 h 2.826919 v 2.89668 h -9.196179 v -2.89668 h 2.826918 v -5.89771 h -2.826918 v -2.89668 z"
     fill="white"
     id="path841"
     style="fill:#131428;fill-opacity:1;stroke-width:2.21493" />
  <path
     d="m 75.718801,162.74218 v 8.79439 h 7.415816 v 2.89668 h -10.97632 v -11.69107 h 3.559618 z"
     fill="white"
     id="path843"
     style="fill:#131428;fill-opacity:1;stroke-width:2.21493" />
  <path
     d="m 96.292424,162.74218 v 2.82691 h -8.201231 v 1.57061 h 7.276054 v 2.65261 h -7.276054 v 1.81491 h 8.288278 v 2.8267 H 84.53091 v -11.69086 h 11.760628 z"
     fill="white"
     id="path845"
     style="fill:#131428;fill-opacity:1;stroke-width:2.21493" />
  <path
     d="m 107.23264,162.74218 v 2.89668 h -2.8267 v 5.89771 h 2.8267 v 2.89668 h -9.195956 v -2.89668 h 2.826916 v -5.89771 h -2.826916 v -2.89668 z"
     fill="white"
     id="path847"
     style="fill:#131428;fill-opacity:1;stroke-width:2.21493" />
  <path
     d="m 117.94893,162.74218 c 2.63466,0 4.11822,1.50106 4.11822,3.55961 v 0.55861 c 0,1.43107 -0.7327,2.60011 -1.97151,3.19327 l 2.46035,4.37958 h -3.94325 l -2.23376,-3.97868 h -3.6646 v 3.97868 h -3.55984 v -11.69107 z m -5.23455,4.9734 h 4.4148 c 0.92496,0 1.3438,-0.33179 1.3438,-1.012 v -0.22681 c 0,-0.62837 -0.41884,-1.02928 -1.3438,-1.02928 h -4.4148 z"
     fill="white"
     id="path849"
     style="fill:#131428;fill-opacity:1;stroke-width:2.21493" />
  <path
     d="m 133.54914,162.74218 5.02524,11.69107 h -3.50712 l -0.94224,-2.19854 h -6.61334 l -0.94223,2.19854 h -3.36825 l 5.02524,-11.69107 h 5.32182 z m -1.55289,-2.96646 c 0.27931,0 0.38385,-0.20954 0.38385,-0.83791 h 1.78014 c 0,1.62266 -0.64565,2.44329 -2.05878,2.44329 -1.48356,0 -1.81469,-0.9079 -2.42579,-0.9079 -0.33202,0 -0.43634,0.26202 -0.43634,0.83791 h -1.7622 c 0,-1.60516 0.62837,-2.4258 2.0415,-2.4258 1.51811,0 1.90174,0.88974 2.47762,0.88974 z m -3.28098,9.68479 h 4.20527 l -1.74492,-4.04846 h -0.7327 z"
     fill="white"
     id="path851"
     style="fill:#131428;fill-opacity:1;stroke-width:2.21493" />
  <path
     d="m 146.42698,162.56808 c 3.83892,0 6.82266,1.90174 6.82266,5.33976 v 1.39585 c 0,3.41986 -2.98374,5.30454 -6.82266,5.30454 h -0.69815 c -3.92618,0 -6.96241,-1.88468 -6.96241,-5.30454 v -1.39585 c 0,-3.43713 3.03623,-5.33976 6.96241,-5.33976 z m -4.04845,5.39159 v 1.25609 c 0,1.50084 1.22153,2.32081 3.3503,2.32081 h 0.55839 c 2.11149,0 3.35031,-0.81997 3.35031,-2.32081 v -1.25609 c 0,-1.50084 -1.23882,-2.32081 -3.35031,-2.32081 h -0.55839 c -2.12877,0 -3.3503,0.81997 -3.3503,2.32081 z"
     fill="white"
     id="path853"
     style="fill:#131428;fill-opacity:1;stroke-width:2.21493" />
  <path
     d="m 65.111046,187.81012 c -4.093639,0 -7.053675,3.40413 -7.053675,7.10639 0,3.19681 2.223571,5.08283 5.166995,5.08283 2.943424,0 4.772515,-1.83065 5.347069,-4.08434 -0.791174,0.56791 -2.149592,1.20913 -3.682769,1.20913 -1.310797,0 -2.88362,-0.5606 -3.036894,-2.29467 3.292498,-0.42903 5.976774,-1.48378 7.436637,-2.58859 0.02303,-0.18428 0.04607,-0.45207 0.04607,-0.7976 0,-1.86298 -1.166162,-3.63382 -4.224098,-3.63382 z m 0.483076,4.69123 H 62.00571 c 0.322494,-1.65567 1.49508,-2.87432 2.645516,-2.87432 0.781649,0 1.14955,0.41397 1.14955,1.42597 0,0.46004 -0.06844,0.94312 -0.206654,1.44901 z m 41.780498,-4.69123 c -4.20904,0 -7.19853,3.26592 -7.19853,7.45192 0,3.0586 2.39212,4.7373 5.35858,4.7373 4.20815,0 7.19765,-3.26592 7.19765,-7.45192 0,-3.0586 -2.39124,-4.7373 -5.35859,-4.7373 z m -1.70173,10.32624 c -0.96616,0 -1.49508,-0.78188 -1.49508,-2.25392 0,-2.92105 1.17258,-6.21001 3.0586,-6.21001 0.96593,0 1.49508,0.78165 1.49508,2.2537 0,2.92127 -1.19651,6.20956 -3.0586,6.20956 z m -5.65871,-7.35978 c 0,0.3679 -0.03677,0.77899 -0.123155,1.21887 l -1.509476,7.77353 h -3.75121 l 1.331174,-6.85366 c 0.06822,-0.34487 0.09635,-0.64344 0.09635,-0.91987 0,-1.08066 -0.574332,-1.56352 -1.609592,-1.56352 -0.413749,0 -0.92717,0.13312 -1.256088,0.27554 l -1.759321,9.06151 h -3.749659 l 2.278279,-11.72917 h 3.74966 l -0.41375,2.1157 c 0.608221,-0.97413 1.963538,-2.34606 3.727953,-2.34606 1.632627,0 2.988835,0.98897 2.988835,2.96646 z m -11.99763,0.76393 c 0,-2.11571 -1.843488,-3.73039 -4.424106,-3.73039 -3.21121,0 -4.887914,2.11282 -5.382287,4.08433 1.006909,-0.73336 2.440856,-1.20913 3.682769,-1.20913 1.157302,0 2.304859,0.37632 2.304859,1.54115 0,0.11518 0,0.2525 -0.02304,0.43679 -2.958485,0.1196 -7.221566,1.70262 -7.221566,4.96765 0,1.35709 0.98188,2.36909 2.49933,2.36909 1.51745,0 2.927698,-1.03504 3.756083,-2.34606 l -0.410206,2.11571 h 3.748995 l 1.368386,-7.05589 c 0.06844,-0.41397 0.100779,-0.80469 0.100779,-1.17259 z m -4.699201,5.56147 c -0.460042,0.20643 -1.050986,0.34465 -1.48777,0.34465 -0.943119,0 -1.406704,-0.51896 -1.406704,-1.20936 0,-1.45676 1.726318,-2.38039 3.392612,-1.69952 l -0.498803,2.56423 z m -8.429369,0.0222 c 0.499689,0 0.984759,-0.14175 1.616015,-0.61752 -0.578762,1.97372 -2.197657,3.49273 -3.933942,3.49273 -2.13143,0 -2.803662,-1.79166 -2.360232,-4.08434 l 1.128729,-5.8049 h -1.532512 l 0.402232,-2.07029 h 1.536942 l 0.422609,-2.20984 3.861071,-0.54288 -0.53978,2.75272 h 3.214754 c -0.241206,1.20359 -0.989632,2.07029 -2.525245,2.07029 h -1.091297 l -1.104144,5.68241 c -0.17055,0.87092 0.298794,1.33162 0.9048,1.33162 z m -17.426647,-3.18374 c 0,3.15074 -4.240489,5.82859 -11.320964,5.82859 h -4.298963 l 2.937666,-15.12334 h 9.438713 c 2.660578,0 4.085001,0.54864 4.085001,2.20851 0,1.98746 -3.174442,4.1767 -8.169558,5.08062 l 2.72481,-4.53419 -4.162966,-0.0109 -1.812479,5.58318 2.870774,-0.40311 -3.649766,6.07467 8.602799,-7.14936 c 1.676704,0 2.754933,0.97324 2.754933,2.44595 z"
     fill="white"
     id="path855"
     style="fill:#131428;fill-opacity:1;stroke-width:2.21493" />
  <path
     d="M 127.95267,0 C 118.68805,8.2619645 102.35492,15.896129 78.465096,15.896129 54.575276,15.896129 29.797046,8.2619645 20.532558,0 L 0,3.3374605 22.48068,43.092179 131.76213,42.131563 155.04528,3.3374605 Z"
     fill="#131428"
     id="path857"
     style="stroke-width:2.21493" />
  <path
     d="m 146.74615,82.613665 c 0,37.900815 -30.72421,68.625255 -68.625255,68.625255 -37.900819,0 -68.6252352,-30.72444 -68.6252352,-68.625255 0,-37.901041 30.7244162,-66.724381 68.6252352,-66.724381 37.901045,0 68.625255,28.824226 68.625255,66.725045 z"
     fill="#131428"
     id="path859"
     style="stroke-width:2.21493" />
  <path
     fill-rule="evenodd"
     clip-rule="evenodd"
     d="M 47.156359,82.736594 51.44624,74.910129 C 50.50135,70.283578 49.368855,65.640415 48.05252,60.99858 45.772247,53.252739 42.985862,45.331254 39.707762,37.272222 34.251054,24.335243 28.515707,14.332608 25.625885,9.9401525 L 13.354493,11.166915 c 0,0 8.141871,11.32041 16.845449,28.191109 l 0.01,-0.01152 0.754628,1.509477 c 2.019575,3.976025 4.055098,8.236891 6.017529,12.717479 l 0.265349,0.599803 -0.0031,0.0038 c 3.854204,8.87302 7.396989,18.574646 9.912045,28.559563 z"
     fill="#c7ff00"
     id="path861"
     style="stroke-width:2.21493" />
  <path
     fill-rule="evenodd"
     clip-rule="evenodd"
     d="m 61.006111,107.15689 c -0.928057,-3.32063 -4.416797,-11.647223 -6.899294,-14.910262 0,-6.64e-4 0,-0.0022 0,-0.0031 -2.977755,-4.351235 -5.832582,-7.073165 -6.503042,-7.688031 3.098026,12.99944 4.680374,25.954803 2.59568,38.604723 1.906171,2.17839 9.253767,5.67931 10.913859,6.28952 0.01351,-0.0357 0.02946,-0.0698 0.04939,-0.1041 l -0.0053,-0.002 c 2.070297,-7.03817 1.998091,-14.49607 -0.150616,-22.18654 z"
     fill="#c7ff00"
     id="path863"
     style="stroke-width:2.21493" />
  <path
     fill-rule="evenodd"
     clip-rule="evenodd"
     d="m 108.4781,82.736594 -4.28966,-7.826465 c 0.94467,-4.626551 2.07716,-9.269714 3.39372,-13.911549 2.28005,-7.745841 5.06643,-15.667326 8.34476,-23.726358 5.45648,-12.936979 11.19205,-22.939614 14.08187,-27.3320695 l 12.27117,1.2267625 c 0,0 -8.14187,11.32041 -16.84545,28.191109 l -0.01,-0.01152 -0.75485,1.509477 c -2.01935,3.976025 -4.05488,8.236891 -6.01753,12.717479 l -0.26513,0.599803 0.003,0.0038 c -3.85442,8.87302 -7.39721,18.574646 -9.91226,28.559563 z"
     fill="#c7ff00"
     id="path865"
     style="stroke-width:2.21493" />
  <path
     fill-rule="evenodd"
     clip-rule="evenodd"
     d="m 94.630117,107.15689 c 0.928057,-3.32063 4.416797,-11.647223 6.899293,-14.910262 0,-6.64e-4 0,-0.0022 0,-0.0031 2.97798,-4.351235 5.8328,-7.073165 6.50304,-7.688031 -3.09802,12.99944 -4.68037,25.954803 -2.59545,38.604723 -1.9064,2.17839 -9.253993,5.67931 -10.913864,6.28952 -0.01373,-0.0357 -0.02968,-0.0698 -0.04939,-0.1041 l 0.0053,-0.002 c -2.070519,-7.03817 -1.998312,-14.49607 0.150394,-22.18654 z"
     fill="#c7ff00"
     id="path867"
     style="stroke-width:2.21493" />
  <path
     fill-rule="evenodd"
     clip-rule="evenodd"
     d="m 77.815235,25.367402 c -17.03394,0 -33.033284,-4.429755 -46.910058,-12.19996 4.128855,7.761855 10.195556,20.201183 13.963378,30.12541 3.58664,9.448459 6.437037,18.99194 8.515751,28.484476 l 23.067416,-42.08372 0.785194,-1.288204 0.578319,-0.770797 0.57854,0.770797 0.784972,1.288204 23.067413,42.08372 c 2.07894,-9.491872 4.92845,-19.036017 8.51598,-28.484476 3.7676,-9.924227 9.83452,-22.363555 13.96315,-30.12541 -13.87589,7.770205 -29.87523,12.19996 -46.910055,12.19996 z"
     fill="#c7ff00"
     id="path869"
     style="stroke-width:2.21493" />
  <path
     fill-rule="evenodd"
     clip-rule="evenodd"
     d="m 126.34906,43.896421 -4.91693,10.727583 c 5.32359,8.13722 8.41785,17.835745 8.41785,28.238841 0,23.488475 -15.77674,43.387205 -37.367461,49.818925 -1.187869,-5.02036 -2.113046,-10.42591 -2.113046,-15.1034 0,-5.26113 1.171478,-10.20774 3.097362,-14.89653 0.873348,-2.51373 1.902405,-4.770964 2.947632,-6.729851 1.86896,-3.504688 3.930173,-6.383657 5.700573,-8.551412 1.59918,-2.278058 2.82803,-3.760955 3.33347,-4.349242 L 77.965186,32.91257 v -0.0031 l -0.05692,-0.100336 -0.09591,-0.175423 -0.0013,0.0029 -0.0015,-0.0029 -0.09591,0.175423 -0.05692,0.100336 v 0.0031 L 50.173318,83.051335 c 0.505448,0.588287 1.734514,2.071184 3.333696,4.349242 1.770174,2.168419 3.830726,5.046724 5.70035,8.551412 1.045227,1.958887 2.074285,4.216121 2.947633,6.729851 1.926105,4.68879 3.097361,9.6354 3.097361,14.89653 0,4.67749 -0.924291,10.08304 -2.113045,15.1034 -21.590499,-6.43172 -37.367464,-26.32956 -37.367464,-49.818925 0,-10.403096 3.095147,-20.101621 8.417851,-28.238841 L 29.272771,43.896421 C 20.85503,54.5374 15.820334,67.976947 15.820334,82.597717 c 0,32.514993 24.85048,59.223093 56.593345,62.177593 0.118498,0.0113 0.237219,0.0213 0.355718,0.0319 0.330689,0.0288 0.662043,0.0569 0.994061,0.0804 0.372552,0.0268 0.745768,0.051 1.120535,0.0709 0.179188,0.01 0.359483,0.0166 0.538893,0.025 0.318286,0.0144 0.638344,0.0266 0.958401,0.0366 0.15571,0.004 0.312306,0.01 0.468237,0.0128 0.268228,0.006 0.537343,0.008 0.807122,0.01 v 0.004 c 0.05161,0 0.102551,-0.002 0.15438,-0.002 0.05161,0 0.102552,0.002 0.15416,0.002 v -0.004 c 0.269114,-0.002 0.538893,-0.004 0.807343,-0.01 0.156374,-0.004 0.312305,-0.008 0.468015,-0.0128 0.320058,-0.01 0.639229,-0.0222 0.958623,-0.0366 0.180074,-0.008 0.359483,-0.0153 0.538893,-0.025 0.37388,-0.0206 0.747761,-0.0441 1.120313,-0.0709 0.332018,-0.0235 0.663372,-0.0516 0.994062,-0.0804 0.118498,-0.0106 0.237219,-0.0206 0.355718,-0.0319 31.742867,-2.95384 56.593297,-29.66194 56.593297,-62.177593 0,-14.62077 -5.03454,-28.060317 -13.45239,-38.701296 z M 77.581338,100.76039 c -9.852685,0 -17.868526,-8.015845 -17.868526,-17.86853 0,-9.852906 8.015841,-17.868526 17.868526,-17.868526 9.852906,0 17.868526,8.01562 17.868526,17.868526 0,9.852685 -8.01562,17.86853 -17.868526,17.86853 z"
     fill="#c7ff00"
     id="path871"
     style="stroke-width:2.21493" />
  <path
     d="m 77.561846,76.502001 -6.627742,4.815042 2.531003,7.791469 h 8.192814 l 2.53189,-7.791469 z"
     fill="#c7ff00"
     id="path873"
     style="stroke-width:2.21493" />
  <path
     d="m 64.550889,79.254055 -0.72827,-4.093639 c -1.166605,2.068748 -1.879591,4.428094 -2.003406,6.941599 z"
     fill="#c7ff00"
     id="path875"
     style="stroke-width:2.21493" />
  <path
     d="m 69.454086,94.555917 -2.937001,-0.419508 c 1.252766,1.230395 2.709084,2.253472 4.315132,3.012751 l -1.378131,-2.594129 z"
     fill="#c7ff00"
     id="path877"
     style="stroke-width:2.21493" />
  <path
     d="m 81.852392,67.715585 c -1.357532,-0.383183 -2.7886,-0.588286 -4.267732,-0.589837 -0.0062,0 -0.01218,0 -0.01905,0 -0.0062,0 -0.01218,0 -0.01905,0 -1.479132,0.0022 -2.911086,0.207318 -4.267732,0.589837 l 4.267732,2.008058 v 0.01063 l 0.0069,0.0038 0.01218,-0.0053 0.01218,0.0053 0.0069,-0.0038 v -0.01063 z"
     fill="#c7ff00"
     id="path879"
     style="stroke-width:2.21493" />
  <path
     d="m 65.206509,73.102744 0.841232,5.116937 3.793515,1.230617 6.278226,-4.571178 v -4.054877 l -4.805075,-2.41029 c -2.405638,1.03969 -4.501186,2.661685 -6.107898,4.688791 z"
     fill="#c7ff00"
     id="path881"
     style="stroke-width:2.21493" />
  <path
     d="m 65.133859,80.984803 -3.275885,3.253736 c 0.251616,2.967346 1.324087,5.700573 2.991045,7.970878 l 4.116452,0.668246 2.375294,-3.285853 -2.410954,-7.382592 z"
     fill="#c7ff00"
     id="path883"
     style="stroke-width:2.21493" />
  <path
     d="m 83.813051,94.489691 -2.343177,-3.227379 h -3.903819 -3.903597 l -2.343399,3.227379 1.771724,3.521299 c 1.412906,0.417294 2.907321,0.643217 4.454894,0.645432 0.0069,0 0.01285,0 0.01971,0 0.0069,0 0.01285,0 0.01971,0 1.547574,-0.0022 3.042653,-0.228138 4.454894,-0.645432 l 1.771725,-3.521299 z"
     fill="#c7ff00"
     id="path885"
     style="stroke-width:2.21493" />
  <path
     d="m 90.574354,79.254055 0.728049,-4.093639 c 1.166826,2.068748 1.879591,4.428094 2.003628,6.941599 z"
     fill="#c7ff00"
     id="path887"
     style="stroke-width:2.21493" />
  <path
     d="m 85.670936,94.555917 2.936779,-0.41973 c -1.252544,1.230617 -2.708862,2.253694 -4.31491,3.012973 l 1.378131,-2.594129 z"
     fill="#c7ff00"
     id="path889"
     style="stroke-width:2.21493" />
  <path
     d="m 89.91962,73.102744 -0.841453,5.116937 -3.793515,1.230617 -6.278226,-4.571178 v -4.054877 l 4.805296,-2.41029 c 2.405638,1.03969 4.500964,2.661685 6.107898,4.688791 z"
     fill="#c7ff00"
     id="path891"
     style="stroke-width:2.21493" />
  <path
     d="m 89.993377,80.984803 3.276107,3.253736 c -0.251616,2.967346 -1.324087,5.700573 -2.991045,7.970878 l -4.116452,0.668246 -2.375294,-3.285853 2.410954,-7.382592 z"
     fill="#c7ff00"
     id="path893"
     style="stroke-width:2.21493" />
</svg>
