<svg xmlns="http://www.w3.org/2000/svg" xml:space="preserve" width="249.99998" height="166.55029"><defs><clipPath id="a" clipPathUnits="userSpaceOnUse"><path d="M400.647 813.534s-.002-21.491.012-23.184c-.029-14.966 16.37-24.815 18.737-25.286 2.361.493 18.732 10.33 18.721 25.186l-.005 23.293-37.465-.009z"/></clipPath><clipPath id="b" clipPathUnits="userSpaceOnUse"><path d="M-.056-.523H.985V.651H-.056V-.523z"/></clipPath><clipPath id="d" clipPathUnits="userSpaceOnUse"><path d="M-.034-.486H1.03V.532H-.034V-.486z"/></clipPath><clipPath id="f" clipPathUnits="userSpaceOnUse"><path d="M418.801 807.961c-.503-.504-.441-1.066-.296-1.534.29-.934-.036-1.021-.253-2.16-.659.575-.829.671-1.646.962-.688.244-1.035.988-1.328 1.235-.598.502-1.223.647-1.805.465.787-.318.994-.709 1.176-1.209.229-.636.026-1.097.742-1.627.832-.616 1.181-1.113 1.346-1.384 0 0-1.671.19-2.73-.49-.396-.255-.984-.117-1.383.02-.239.081-.411.162-.438.162-.592-.017-.987-.386-1.335-.96.516.238 1.218.105 1.687-.369.455-.463.765-.716 1.469-.302 1.073.63 1.626.228 2.776.065-.681-.527-1.445-.764-1.551-1.438-.136-.862-.624-1.255-1.276-1.6-.63-.335-.86-1.003-.786-1.329.416.895 1.226 1 1.825.981.659-.021 1.155.71 1.61 1.25.654.777 1.614.723 1.614.723-.272-1.239.22-1.271.699-2.212.445-.869-.029-1.534-.05-1.818-.041-.591.196-.963.834-1.372-.219.523-.3 1.039.35 1.708.496.509.517.92.354 1.383-.381 1.084-.061 1.247.141 2.39.667-.566.845-.737 1.665-1.016.691-.235 1.126-1.091 1.422-1.333.604-.495 1.076-.55 1.656-.362-.638.271-.851.58-1.039 1.08-.239.632-.083 1.224-.763 1.653-.913.577-1.429 1.145-1.597 1.413 0 0 1.773-.274 2.766.233 1.039.529 1.765.076 2.11.029.504-.069.871.271 1.258.96-.286-.16-.958-.22-1.648.369-.541.462-1.013.443-1.47.264-1.116-.437-2.039-.377-3.114.096 1.174.648 1.761.74 1.908 1.45.175.855.609 1.226 1.256 1.58.626.343.691.78.613 1.104-.442-.706-1.327-.902-1.928-.89-.659.012-.962-.535-1.363-1.118-.566-.823-1.221-.627-1.669-.905 0 0-.104 1.579-.619 2.274-.583.784.089 1.61.113 1.893.048.591-.258.891-.776 1.234.212-.528.133-.89-.527-1.548"/></clipPath><clipPath id="g" clipPathUnits="userSpaceOnUse"><path d="M-.102-.574H1.1V.571H-.1V-.574z"/></clipPath><clipPath id="i" clipPathUnits="userSpaceOnUse"><path d="M547.087 385.511h260.788v175.748H547.087V385.511z"/></clipPath><clipPath id="j" clipPathUnits="userSpaceOnUse"><path d="M563.022 395.617H799.37v157.138H563.022V395.617z"/></clipPath><clipPath id="k" clipPathUnits="userSpaceOnUse"><path d="M547.087 385.511h260.788v175.748H547.087V385.511z"/></clipPath><clipPath id="l" clipPathUnits="userSpaceOnUse"><path d="M563.022 395.617H799.37v157.138H563.022V395.617z"/></clipPath><clipPath id="m" clipPathUnits="userSpaceOnUse"><path d="M547.087 385.511h260.788v175.748H547.087V385.511z"/></clipPath><linearGradient id="c" x1="0" x2="1" y1="0" y2="0" gradientTransform="matrix(46.74022 17.01169 17.01169 -46.7402 396.578 784.394)" gradientUnits="userSpaceOnUse" spreadMethod="pad"><stop offset="0" style="stop-opacity:1;stop-color:#fcd405"/><stop offset="0.580002" style="stop-opacity:1;stop-color:#fff"/><stop offset="1" style="stop-opacity:1;stop-color:#fcd405"/></linearGradient><linearGradient id="e" x1="0" x2="1" y1="0" y2="0" gradientTransform="scale(27.00757 -27.00757) rotate(-20 -74.549 -57.154)" gradientUnits="userSpaceOnUse" spreadMethod="pad"><stop offset="0" style="stop-opacity:1;stop-color:#fcd405"/><stop offset="0.600006" style="stop-opacity:1;stop-color:#fff"/><stop offset="1" style="stop-opacity:1;stop-color:#fcd405"/></linearGradient><linearGradient id="h" x1="0" x2="1" y1="0" y2="0" gradientTransform="scale(17.85056 -17.85056) rotate(-20 -115.364 -87.675)" gradientUnits="userSpaceOnUse" spreadMethod="pad"><stop offset="0" style="stop-opacity:1;stop-color:#fcd405"/><stop offset="0.539993" style="stop-opacity:1;stop-color:#fff"/><stop offset="1" style="stop-opacity:1;stop-color:#fcd405"/></linearGradient></defs><g clip-path="url(#a)" transform="matrix(1.25 0 0 -1.25 1495.464 -1106.256)"><g clip-path="url(#b)"><path d="M400.647 813.534s-.002-21.491.012-23.184c-.029-14.966 16.37-24.815 18.737-25.286 2.361.493 18.732 10.33 18.721 25.186l-.005 23.293-37.465-.009z" style="fill:url(#c);stroke:none"/></g></g><g clip-path="url(#d)" transform="matrix(1.25 0 0 -1.25 1495.464 -1106.256)"><path d="M407.907 785.869c-.032-5.815 5.783-10.624 11.482-10.62 5.699.002 11.45 4.859 11.446 10.635-.004 5.777-3.45 8.739-5.839 10.24 1.544-1.849 2.131-3.208 2.2-5.659.074-2.717-2.146-7.319-7.806-7.324-5.66-.002-7.798 4.655-7.799 7.313-.002 2.445.731 3.905 2.192 5.697-2.425-1.465-5.843-4.395-5.876-10.282" style="fill:url(#e);stroke:none"/></g><g clip-path="url(#f)" transform="matrix(1.25 0 0 -1.25 1495.464 -1106.256)"><g clip-path="url(#g)"><path d="M418.801 807.961c-.503-.504-.441-1.066-.296-1.534.29-.934-.036-1.021-.253-2.16-.659.575-.829.671-1.646.962-.688.244-1.035.988-1.328 1.235-.598.502-1.223.647-1.805.465.787-.318.994-.709 1.176-1.209.229-.636.026-1.097.742-1.627.832-.616 1.181-1.113 1.346-1.384 0 0-1.671.19-2.73-.49-.396-.255-.984-.117-1.383.02-.239.081-.411.162-.438.162-.592-.017-.987-.386-1.335-.96.516.238 1.218.105 1.687-.369.455-.463.765-.716 1.469-.302 1.073.63 1.626.228 2.776.065-.681-.527-1.445-.764-1.551-1.438-.136-.862-.624-1.255-1.276-1.6-.63-.335-.86-1.003-.786-1.329.416.895 1.226 1 1.825.981.659-.021 1.155.71 1.61 1.25.654.777 1.614.723 1.614.723-.272-1.239.22-1.271.699-2.212.445-.869-.029-1.534-.05-1.818-.041-.591.196-.963.834-1.372-.219.523-.3 1.039.35 1.708.496.509.517.92.354 1.383-.381 1.084-.061 1.247.141 2.39.667-.566.845-.737 1.665-1.016.691-.235 1.126-1.091 1.422-1.333.604-.495 1.076-.55 1.656-.362-.638.271-.851.58-1.039 1.08-.239.632-.083 1.224-.763 1.653-.913.577-1.429 1.145-1.597 1.413 0 0 1.773-.274 2.766.233 1.039.529 1.765.076 2.11.029.504-.069.871.271 1.258.96-.286-.16-.958-.22-1.648.369-.541.462-1.013.443-1.47.264-1.116-.437-2.039-.377-3.114.096 1.174.648 1.761.74 1.908 1.45.175.855.609 1.226 1.256 1.58.626.343.691.78.613 1.104-.442-.706-1.327-.902-1.928-.89-.659.012-.962-.535-1.363-1.118-.566-.823-1.221-.627-1.669-.905 0 0-.104 1.579-.619 2.274-.583.784.089 1.61.113 1.893.048.591-.258.891-.776 1.234.212-.528.133-.89-.527-1.548" style="fill:url(#h);stroke:none"/></g></g><g clip-path="url(#i)" transform="matrix(1.05353 0 0 -1.05353 -592.66 582.845)"><path d="M0 0c-.609 0-1.343.111-1.958.327-.127.05-.177.112-.177.195 0 .04 0 .081.025.133l.215.666c.033.102.084.164.19.164a.498.498 0 0 0 .151-.033c.478-.168 1.009-.303 1.529-.303.557 0 1.175.266 1.175.911 0 .471-.343.727-.747.922l-1.337.667c-.722.357-1.201.962-1.201 1.762 0 1.248 1.225 1.941 2.361 1.941.684 0 1.236-.106 1.834-.362.138-.062.212-.121.212-.202a.278.278 0 0 0-.039-.136l-.238-.625c-.045-.113-.102-.154-.178-.154-.048 0-.098.02-.163.041-.416.171-.945.315-1.352.315-.481 0-1.035-.202-1.035-.778 0-.419.389-.666.723-.83l1.143-.554c.813-.387 1.363-.929 1.363-1.874C2.496.768 1.338 0 0 0" style="fill:#202958;fill-opacity:1;fill-rule:nonzero;stroke:none" transform="translate(679.649 412.066)"/><path d="M0 0c-.673-.277-1.293-.419-2.04-.419-2.158 0-3.217 1.528-3.217 3.639 0 2.1 1.262 3.713 3.321 3.713.705 0 1.337-.148 1.931-.433.114-.063.163-.109.163-.175a.31.31 0 0 0-.036-.136l-.233-.643c-.033-.092-.088-.131-.148-.131a.347.347 0 0 0-.114.039 3.021 3.021 0 0 1-1.482.368c-1.422 0-1.973-1.311-1.973-2.549 0-1.579.729-2.589 1.995-2.589.491 0 .996.116 1.474.329.052.02.089.043.125.043.068 0 .123-.052.164-.154L.134.35A.336.336 0 0 0 .161.206C.161.114.122.05 0 0" style="fill:#202958;fill-opacity:1;fill-rule:nonzero;stroke:none" transform="translate(688.356 412.485)"/><path d="M0 0c-1.024 0-1.702-.951-1.702-2.549 0-1.704.619-2.566 1.702-2.566 1.024 0 1.706.895 1.706 2.566C1.706-.825 1.101 0 0 0m-.036-6.229c-1.958 0-3.083 1.422-3.083 3.649 0 2.202 1.229 3.703 3.158 3.703 2.026 0 3.083-1.545 3.083-3.642 0-2.316-1.323-3.71-3.158-3.71" style="fill:#202958;fill-opacity:1;fill-rule:nonzero;stroke:none" transform="translate(692.444 418.295)"/><path d="M0 0c-.023-.171-.131-.215-.314-.215h-1.859v-5.789c0-.193-.036-.237-.215-.237h-.902c-.182 0-.218.044-.218.225v5.801h-1.909c-.178 0-.24.075-.24.249v.603c0 .153.076.215.223.215H-.24C.019.852.09.77.074.595L0 0z" style="fill:#202958;fill-opacity:1;fill-rule:nonzero;stroke:none" transform="translate(701.885 418.43)"/><path d="M0 0c-.021-.171-.131-.215-.32-.215h-1.855v-5.789c0-.193-.039-.237-.213-.237h-.901c-.187 0-.219.044-.219.225v5.801H-5.42c-.183 0-.242.075-.242.249v.603c0 .153.079.215.228.215h5.195c.261 0 .33-.082.31-.257L0 0z" style="fill:#202958;fill-opacity:1;fill-rule:nonzero;stroke:none" transform="translate(707.877 418.43)"/><path d="M0 0h-.578v-5.369h.547c.152 0 .215-.097.215-.217v-.441c0-.122-.05-.205-.184-.205h-2.44c-.133 0-.206.083-.206.194v.46c0 .141.062.209.206.209h.548V0h-.592c-.153 0-.215.071-.215.209v.448c0 .111.062.204.188.204H0C.145.861.218.768.218.668v-.45C.218.052.145 0 0 0" style="fill:#202958;fill-opacity:1;fill-rule:nonzero;stroke:none" transform="translate(711.374 418.42)"/><path d="M0 0a6.24 6.24 0 0 0-1.956.327c-.127.05-.171.112-.171.195 0 .04 0 .081.02.133l.212.666c.038.102.091.164.193.164a.466.466 0 0 0 .148-.033c.481-.168 1.012-.303 1.53-.303.555 0 1.177.266 1.177.911 0 .471-.345.727-.749.922l-1.334.667c-.723.357-1.203.962-1.203 1.762 0 1.248 1.225 1.941 2.361 1.941.682 0 1.243-.106 1.839-.362.136-.062.208-.121.208-.202a.312.312 0 0 0-.038-.136l-.24-.625c-.038-.113-.1-.154-.182-.154-.045 0-.095.02-.158.041-.417.171-.945.315-1.348.315-.486 0-1.039-.202-1.039-.778 0-.419.389-.666.727-.83l1.143-.554c.805-.387 1.36-.929 1.36-1.874C2.5.768 1.34 0 0 0" style="fill:#202958;fill-opacity:1;fill-rule:nonzero;stroke:none" transform="translate(714.94 412.066)"/><path d="M0 0h-.815c-.18 0-.268.073-.268.256v2.861h-2.904V.256c0-.183-.088-.256-.26-.256h-.801c-.182 0-.276.073-.276.256v6.59c0 .177.112.247.276.247h.801c.166 0 .26-.062.26-.247V4.17h2.904v2.676c0 .177.103.247.268.247H0c.162 0 .241-.062.241-.247V.256C.241.073.167 0 0 0" style="fill:#202958;fill-opacity:1;fill-rule:nonzero;stroke:none" transform="translate(723.98 412.188)"/><path d="M0 0h-.538v-2.543c.092 0 .547-.011.604-.011.874 0 1.391.407 1.391 1.291C1.457-.327.875 0 0 0m.08-3.579c-.08 0-.539.02-.618.03v-2.277c0-.151-.057-.245-.251-.245h-.823c-.164 0-.243.074-.243.276V.747c0 .205.059.276.256.276h1.488c1.089 0 1.888-.205 2.388-.779.332-.38.503-.902.503-1.455 0-1.589-1.194-2.368-2.7-2.368" style="fill:#202958;fill-opacity:1;fill-rule:nonzero;stroke:none" transform="translate(729.671 418.259)"/><path d="M0 0h-.504v-2.483h.628c.823 0 1.365.443 1.365 1.273C1.489-.318.893 0 0 0m3.091-6.089H2.16c-.191 0-.314.052-.406.205L.277-3.479h-.781v-2.355c0-.151-.066-.255-.241-.255h-.841c-.169 0-.245.083-.245.255V.707c0 .226.049.297.276.297h1.519c.894 0 1.83-.133 2.372-.757.33-.379.493-.886.493-1.435 0-.947-.496-1.686-1.316-2.041l1.681-2.597a.372.372 0 0 0 .048-.139c0-.081-.061-.124-.151-.124" style="fill:#202958;fill-opacity:1;fill-rule:nonzero;stroke:none" transform="translate(735.452 418.277)"/><path d="M0 0c-1.025 0-1.717-.951-1.717-2.549 0-1.704.63-2.566 1.717-2.566 1.01 0 1.704.895 1.704 2.566C1.704-.825 1.095 0 0 0m-.041-6.229c-1.956 0-3.09 1.422-3.09 3.649 0 2.202 1.234 3.703 3.159 3.703 2.028 0 3.087-1.545 3.087-3.642 0-2.316-1.323-3.71-3.156-3.71" style="fill:#202958;fill-opacity:1;fill-rule:nonzero;stroke:none" transform="translate(742.503 418.295)"/><path d="m0 0-.077-.617c-.009-.185-.125-.215-.34-.215h-2.577v-1.856h2.371c.189 0 .254-.082.254-.225v-.582c0-.175-.075-.247-.246-.247h-2.379v-2.861c0-.182-.073-.255-.245-.255h-.804c-.205 0-.276.052-.276.275v6.561c0 .164.071.257.241.257h3.863C-.067.235 0 .185 0 .061V0z" style="fill:#202958;fill-opacity:1;fill-rule:nonzero;stroke:none" transform="translate(751.208 419.046)"/><path d="M0 0h-3.807c-.202 0-.273.052-.273.276v6.56c0 .164.071.257.237.257H.02c.161 0 .214-.062.214-.173v-.062l-.067-.617c-.021-.185-.133-.215-.348-.215h-2.578V4.17h2.376c.191 0 .251-.082.251-.225v-.581c0-.175-.074-.247-.247-.247h-2.38V1.066H-.01c.177 0 .257-.073.257-.234V.244C.247.083.173 0 0 0" style="fill:#202958;fill-opacity:1;fill-rule:nonzero;stroke:none" transform="translate(756.52 412.188)"/><path d="M0 0a6.2 6.2 0 0 0-1.958.327c-.133.05-.173.112-.173.195 0 .04 0 .081.019.133l.215.666c.032.102.083.164.182.164.04 0 .092-.011.153-.033.485-.168 1.02-.303 1.527-.303.557 0 1.183.266 1.183.911 0 .471-.345.727-.752.922l-1.329.667c-.731.357-1.212.962-1.212 1.762 0 1.248 1.23 1.941 2.37 1.941.671 0 1.244-.106 1.837-.362.131-.062.204-.121.204-.202 0-.045-.014-.085-.028-.136l-.253-.625c-.036-.113-.103-.154-.173-.154-.052 0-.103.02-.164.041-.419.171-.936.315-1.358.315-.472 0-1.031-.202-1.031-.778 0-.419.391-.666.734-.83l1.135-.554c.804-.387 1.359-.929 1.359-1.874C2.487.768 1.332 0 0 0" style="fill:#202958;fill-opacity:1;fill-rule:nonzero;stroke:none" transform="translate(759.95 412.066)"/><path d="M0 0c-.613 0-1.34.111-1.962.327-.125.05-.169.112-.169.195 0 .04 0 .081.02.133l.213.666c.036.102.086.164.189.164a.56.56 0 0 0 .157-.033c.481-.168 1.01-.303 1.525-.303.555 0 1.173.266 1.173.911 0 .471-.343.727-.747.922l-1.329.667c-.723.357-1.208.962-1.208 1.762 0 1.248 1.226 1.941 2.364 1.941.681 0 1.241-.106 1.836-.362.13-.062.208-.121.208-.202a.31.31 0 0 0-.037-.136l-.24-.625c-.042-.113-.103-.154-.174-.154-.051 0-.104.02-.167.041-.416.171-.947.315-1.35.315-.482 0-1.038-.202-1.038-.778 0-.419.393-.666.727-.83l1.139-.554c.812-.387 1.365-.929 1.365-1.874C2.495.768 1.336 0 0 0" style="fill:#202958;fill-opacity:1;fill-rule:nonzero;stroke:none" transform="translate(765.578 412.066)"/><path d="M0 0h-.588v-5.369h.552c.148 0 .213-.097.213-.217v-.441c0-.122-.049-.205-.177-.205h-2.443c-.133 0-.206.083-.206.194v.46c0 .141.062.209.206.209h.541V0h-.593C-2.642 0-2.7.071-2.7.209v.448c0 .111.058.204.191.204H0C.142.861.213.768.213.668v-.45C.213.052.142 0 0 0" style="fill:#202958;fill-opacity:1;fill-rule:nonzero;stroke:none" transform="translate(771.88 418.42)"/><path d="M0 0c-1.024 0-1.716-.951-1.716-2.549 0-1.704.63-2.566 1.716-2.566 1.008 0 1.7.895 1.7 2.566C1.7-.825 1.098 0 0 0m-.042-6.229c-1.956 0-3.088 1.422-3.088 3.649 0 2.202 1.232 3.703 3.154 3.703 2.031 0 3.092-1.545 3.092-3.642 0-2.316-1.325-3.71-3.158-3.71" style="fill:#202958;fill-opacity:1;fill-rule:nonzero;stroke:none" transform="translate(776.393 418.295)"/><path d="M0 0h-.684a.468.468 0 0 0-.391.216l-3.346 4.573h-.016V.264c0-.191-.092-.264-.267-.264h-.74c-.189 0-.278.052-.278.256v6.561c0 .214.094.276.278.276h.672c.161 0 .243-.05.343-.193l3.376-4.635h.018v4.563c0 .195.093.265.263.265H0c.212 0 .248-.116.248-.276V.276C.248.052.156 0 0 0" style="fill:#202958;fill-opacity:1;fill-rule:nonzero;stroke:none" transform="translate(786.5 412.188)"/><path d="M0 0c-.099.285-.158.502-.209.665h-.017C-.281.492-.344.277-.447-.009l-.73-2.154H.722L0 0zm2.866-4.91h-.91c-.215 0-.291.083-.352.244l-.533 1.509H-1.52l-.533-1.538c-.046-.132-.115-.215-.282-.215h-.909c-.103 0-.141.052-.141.132 0 .03 0 .073.018.112l2.501 6.645c.052.121.123.204.276.204h.819c.155 0 .245-.071.285-.185l2.512-6.612c.025-.052.025-.091.025-.134 0-.103-.052-.162-.185-.162" style="fill:#202958;fill-opacity:1;fill-rule:nonzero;stroke:none" transform="translate(791.052 417.098)"/><path d="M0 0h-3.653c-.182 0-.267.059-.267.282v6.554c0 .164.085.257.251.257h.82c.181 0 .253-.07.253-.265V1.096H0c.168 0 .244-.081.244-.233V.244C.244.059.154 0 0 0" style="fill:#202958;fill-opacity:1;fill-rule:nonzero;stroke:none" transform="translate(798.956 412.188)"/><path d="m0 0-.076-.618c-.03-.184-.138-.215-.354-.215h-2.564V-2.69h2.362c.2 0 .254-.081.254-.228v-.579c0-.177-.065-.248-.242-.248h-2.374v-2.857c0-.188-.078-.26-.255-.26h-.792c-.208 0-.281.054-.281.276v6.56c0 .163.073.257.24.257h3.868C-.064.231 0 .179 0 .054V0z" style="fill:#202958;fill-opacity:1;fill-rule:nonzero;stroke:none" transform="translate(682.086 407.481)"/><path d="M0 0c-1.031 0-1.713-.953-1.713-2.55 0-1.704.625-2.563 1.713-2.563 1.011 0 1.696.892 1.696 2.563C1.696-.831 1.09 0 0 0m-.046-6.232c-1.957 0-3.08 1.426-3.08 3.648 0 2.205 1.227 3.702 3.151 3.702 2.038 0 3.083-1.539 3.083-3.641 0-2.317-1.312-3.709-3.154-3.709" style="fill:#202958;fill-opacity:1;fill-rule:nonzero;stroke:none" transform="translate(685.683 406.73)"/><path d="M0 0c-1.023 0-1.715-.953-1.715-2.55 0-1.704.63-2.563 1.715-2.563 1.01 0 1.706.892 1.706 2.563C1.706-.831 1.101 0 0 0m-.038-6.232c-1.961 0-3.093 1.426-3.093 3.648 0 2.205 1.239 3.702 3.155 3.702 2.036 0 3.098-1.539 3.098-3.641 0-2.317-1.325-3.709-3.16-3.709" style="fill:#202958;fill-opacity:1;fill-rule:nonzero;stroke:none" transform="translate(692.912 406.73)"/><path d="M0 0c-.028-.174-.139-.215-.325-.215h-1.853v-5.791c0-.196-.044-.238-.217-.238h-.901c-.187 0-.212.042-.212.227v5.802h-1.918c-.18 0-.237.07-.237.248v.602c0 .153.067.215.223.215h5.189C.011.85.087.771.065.592L0 0z" style="fill:#202958;fill-opacity:1;fill-rule:nonzero;stroke:none" transform="translate(702.35 406.863)"/><path d="M0 0c-.314.151-.669.183-1.097.183h-.684v-2.235h.761c.363 0 .706.032.973.133.349.157.589.472.589.964C.542-.473.327-.162 0 0m-1.199 3.022h-.582V1.116h.542c.747 0 1.278.196 1.278 1.027 0 .665-.518.879-1.238.879m.287-6.089H-2.82c-.217 0-.271.081-.271.3V3.76c0 .215.095.266.314.266h1.538c1.645 0 2.562-.503 2.562-1.731C1.323 1.579.921.955.177.788V.78C1.149.707 1.882.04 1.882-.996c0-1.661-1.34-2.071-2.794-2.071" style="fill:#202958;fill-opacity:1;fill-rule:nonzero;stroke:none" transform="translate(706.37 403.686)"/><path d="M0 0c-.087.286-.153.502-.201.665h-.028C-.279.494-.34.279-.442-.01l-.725-2.154H.732L0 0zm2.869-4.911h-.913c-.214 0-.288.081-.345.244l-.536 1.512h-2.591l-.528-1.542c-.049-.133-.116-.214-.283-.214h-.909c-.109 0-.148.054-.148.136 0 .033 0 .071.022.108l2.503 6.642c.052.128.125.207.281.207h.817c.153 0 .242-.07.285-.184l2.508-6.609c.02-.056.02-.093.02-.131 0-.105-.044-.169-.183-.169" style="fill:#202958;fill-opacity:1;fill-rule:nonzero;stroke:none" transform="translate(712.235 405.53)"/><path d="M0 0h-3.647c-.189 0-.266.064-.266.289v6.547c0 .164.077.257.239.257h.823c.188 0 .258-.07.258-.267V1.101H0c.178 0 .244-.086.244-.239V.244C.244.064.149 0 0 0" style="fill:#202958;fill-opacity:1;fill-rule:nonzero;stroke:none" transform="translate(720.143 400.62)"/><path d="M0 0h-3.649c-.178 0-.267.064-.267.289v6.547c0 .164.089.257.256.257h.817c.177 0 .256-.07.256-.267V1.101H0c.177 0 .25-.086.25-.239V.244C.25.064.161 0 0 0" style="fill:#202958;fill-opacity:1;fill-rule:nonzero;stroke:none" transform="translate(725.289 400.62)"/><path d="M0 0h-3.647c-.181 0-.265.064-.265.289v6.547c0 .164.084.257.251.257h.817c.176 0 .254-.07.254-.267V1.101H0c.176 0 .254-.086.254-.239V.244C.254.064.154 0 0 0" style="fill:#202958;fill-opacity:1;fill-rule:nonzero;stroke:none" transform="translate(733.033 400.62)"/><path d="M0 0h-3.807c-.204 0-.275.054-.275.276v6.56c0 .164.071.257.239.257H.016c.164 0 .215-.062.215-.177v-.054l-.064-.618c-.022-.184-.135-.215-.349-.215h-2.576V4.172h2.377c.185 0 .251-.081.251-.228v-.579c0-.177-.073-.248-.249-.248h-2.379V1.065h2.753c.172 0 .25-.068.25-.233V.244C.245.081.175 0 0 0" style="fill:#202958;fill-opacity:1;fill-rule:nonzero;stroke:none" transform="translate(738.36 400.62)"/><path d="M0 0c-.097.286-.155.502-.206.665h-.023C-.279.494-.342.279-.441-.01l-.733-2.154H.72L0 0zm2.867-4.911h-.91c-.213 0-.295.081-.353.244l-.529 1.512h-2.593l-.537-1.542c-.042-.133-.108-.214-.276-.214h-.917c-.097 0-.139.054-.139.136 0 .033 0 .071.019.108l2.505 6.642c.052.128.116.207.276.207H.23c.159 0 .25-.07.285-.184l2.517-6.609c.022-.056.022-.093.022-.131 0-.105-.051-.169-.187-.169" style="fill:#202958;fill-opacity:1;fill-rule:nonzero;stroke:none" transform="translate(742.6 405.53)"/><path d="M0 0c-.563-.286-1.518-.472-2.293-.472-2.138 0-3.347 1.474-3.347 3.648 0 2.142 1.383 3.702 3.468 3.702.658 0 1.264-.114 1.886-.393.117-.05.136-.111.136-.184 0-.04-.013-.078-.019-.121l-.247-.614c-.036-.101-.074-.146-.147-.146-.042 0-.09.025-.145.045-.337.141-.923.295-1.396.295-.557 0-1.084-.206-1.438-.588-.433-.448-.687-1.115-.687-1.957 0-1.584.749-2.58 1.988-2.58.414 0 .878.061 1.153.176v1.956h-.916c-.139 0-.219.054-.219.226v.624c0 .164.08.205.23.205H0c.172 0 .247-.048.247-.238V.387C.247.184.194.102 0 0" style="fill:#202958;fill-opacity:1;fill-rule:nonzero;stroke:none" transform="translate(751.92 400.97)"/><path d="M0 0c-2.16 0-2.956 1.186-2.956 3.292V6.97c0 .174.101.244.267.244h.812c.171 0 .243-.07.243-.244V3.404c0-1.51.393-2.286 1.681-2.286 1.242 0 1.631.819 1.631 2.286V6.97c0 .174.094.244.256.244h.815c.171 0 .239-.07.239-.244V3.269C2.988 1.156 1.997 0 0 0" style="fill:#202958;fill-opacity:1;fill-rule:nonzero;stroke:none" transform="translate(756.578 400.498)"/></g><g clip-path="url(#j)" transform="matrix(1.05353 0 0 -1.05353 -592.66 582.845)"><path d="M0 0h-3.802c-.202 0-.278.054-.278.276v6.56c0 .164.076.257.24.257H.022c.169 0 .214-.062.214-.177v-.054l-.073-.618c-.012-.184-.129-.215-.344-.215h-2.573V4.172h2.367c.191 0 .255-.081.255-.228v-.579c0-.177-.077-.248-.247-.248h-2.375V1.065h2.745c.172 0 .26-.068.26-.233V.244C.251.081.171 0 0 0" style="fill:#202958;fill-opacity:1;fill-rule:nonzero;stroke:none" transform="translate(765.22 400.62)"/><path d="M0 0c-24.131-1.563-44.956 16.73-46.517 40.855a43.832 43.832 0 0 0 .406 9.391 37.515 37.515 0 0 1-.654-2.546 50.32 50.32 0 0 1-.904-5.439 51.157 51.157 0 0 1-.293-7.185c.039-1.327.126-2.703.301-4.135.164-1.432.406-2.915.746-4.422a40.24 40.24 0 0 1 1.304-4.606 36.652 36.652 0 0 1 1.998-4.666 33.09 33.09 0 0 1 2.779-4.55c1.071-1.469 2.252-2.909 3.599-4.226a37.095 37.095 0 0 1 3.203-2.819l.287-.224.14-.112.168-.123.539-.389a40.844 40.844 0 0 1 4.901-3.022 41.12 41.12 0 0 1 10.863-3.855 45.23 45.23 0 0 1 5.62-.758 47.378 47.378 0 0 1 5.523-.018c3.611.234 7.056.879 10.179 1.857 3.125.966 5.949 2.246 8.374 3.684 0 .001 0 .009.005.013A43.66 43.66 0 0 0 0 0" style="fill:#d4a815;fill-opacity:1;fill-rule:nonzero;stroke:none" transform="translate(651.123 398.538)"/></g><g clip-path="url(#k)" transform="matrix(1.05353 0 0 -1.05353 -592.66 582.845)"><path d="M0 0c3.027-5.219 8.794-8.31 15.864-8.31 6.115 0 9.28 2.684 9.28 6.459 0 5.358-5.289 5.766-12.914 8.723C3.57 10.239-.618 13.949-.618 21.294c0 8.722 7.352 14.974 17.934 14.974 6.518 0 10.921-3.154 13.111-3.154.753 0 1.378.547 1.859 1.513V20.399c-3.017 5.434-8.307 8.451-14.216 8.451-5.498 0-8.868-2.82-8.868-6.867 0-5.081 5.704-5.634 14.503-8.925 7.824-2.959 11.673-7.144 11.673-13.124 0-8.859-7.217-15.592-18.614-15.592-8.59 0-13.327 3.573-14.978 3.573-.818 0-1.444-.62-1.786-1.855V0z" style="fill:#202958;fill-opacity:1;fill-rule:nonzero;stroke:none" transform="translate(635.158 443.06)"/><path d="M0 0c7.087 0 10.584 2.815 10.584 8.037 0 5.56-3.497 8.588-10.437 8.588h-6.74V0H0zm21.092 8.238c0-8.653-7.14-15.381-18.824-15.381h-8.861v-14.91c0-2.126.146-3.157 2.473-4.053h-15.104c2.328.896 2.469 2.065 2.469 4.053V19.78c0 2.064-.141 3.232-2.469 4.059H1.102c13.118 0 19.99-5.705 19.99-15.601" style="fill:#202958;fill-opacity:1;fill-rule:nonzero;stroke:none" transform="translate(696.875 454.466)"/><path d="M0 0c0-2.127.146-3.157 2.48-4.054h-15.113c2.334.897 2.469 2.062 2.469 4.054V41.834c0 2.063-.135 3.231-2.469 4.058h32.904v-9.623c-.829 2.335-1.989 2.471-4.055 2.471H0V24.731H14.36c2.134 0 3.161.137 4.052 2.472V15.109c-.826 2.343-1.99 2.481-4.052 2.481H0V0z" style="fill:#202958;fill-opacity:1;fill-rule:nonzero;stroke:none" transform="translate(737.918 432.413)"/><path d="M0 0V41.834c0 2.063-.135 3.231-2.476 4.058h15.115c-2.337-.827-2.478-2.062-2.478-4.128V3.23H27.538c2.133 0 3.168.137 4.059 2.476v-9.76H-2.476C-.135-3.157 0-1.992 0 0" style="fill:#202958;fill-opacity:1;fill-rule:nonzero;stroke:none" transform="translate(767.773 432.413)"/><path d="M0 0c18.672 0 24.558-14.597 24.558-14.597s-2.852.922-5.717.228c0 0 11.653-6.342 11.85-17.683.273-15.6-10.265-27.124-10.265-27.124 2.103 6.948-.264 12.343-.264 12.343-5.522-8.497-1.973-18.725-1.973-18.725-6.474 2.873-8.235 11.115-8.235 11.115s-3.061-7.61 3.391-13.696c0 0-15.922.477-30.099-15.459-25.685-28.872-5.732-60.734-5.732-60.734-6.224 6.705-10.229 12.916-12.687 18.619a23.091 23.091 0 0 0-1.121 2.863c-1.696 4.812-2.299 9.235-2.232 13.247l-.002.009c-.413 5.827.516 11.145 2.103 15.831 1.096 4.293 3.25 8.168 5.963 11.828a52.997 52.997 0 0 0 2.391 3.247l.001.002.007.008a53.054 53.054 0 0 0 3.977 4.489l11.544 13.028a59.975 59.975 0 0 1 2.46 3.158c9.376 12.929 1.203 31.911 1.203 31.911 4.717 5.345 9.775 4.054 9.775 4.054-2.566-.509-5.902-3.745-5.902-3.745 1.012.202 2.565-.12 2.565-.12-.676-.342-3.229-2.526-3.229-2.526.633-.54 4.895-2.112 4.895-2.112 4.654 3.751 4.631 9.836 4.631 9.836-8.559 2.265-15.072-3.119-15.072-3.119.197 1.305 2.036 4.68 2.036 4.68s.591 1.081 1.583 1.974c0 0-3.721.335-4.633-.996-.17.584.187 1.096.187 1.096-8.538 6.544-14.802 3.293-14.802 3.293-6.233-1.381-12.244-5.013-13.532-5.681l-2.626-1.208c.366.491 2.944 3.084 8.482 5.568a86.415 86.415 0 0 0 6.08 2.45c.373.385.632.784.722 1.184.584 2.606-1.564 4.432-1.564 4.432s2.344.281 3.927-1.044c1.764-1.481 1.951-1.836 1.951-1.836s-.896 3.268 1.197 5.84c2.211 2.714 6.205 2.875 6.205 2.875s-2.67-1.612-2.509-4.549C-18.512-5.746-13.328 0 0 0" style="fill:#202958;fill-opacity:1;fill-rule:nonzero;stroke:none" transform="translate(625.763 552.756)"/><path d="M0 0c-.683 1.025-2.388 4.438-2.388 4.438-3.75-22.517 11.392-41.955 11.392-41.955s-19.953 31.861 5.732 60.734c4.701 5.285 9.593 8.756 14.032 11.05-.004-.001-.012-.001-.022-.005C4.05 24.334 0 0 0 0" style="fill:#d4a815;fill-opacity:1;fill-rule:nonzero;stroke:none" transform="translate(594.273 445.941)"/><path d="m0 0-.858.157-.972.184c-.373.076-.801.136-1.256.222-.467.065-.965.145-1.499.21-.528.078-1.096.112-1.673.175-.589.032-1.19.075-1.809.083-.612.031-1.248.007-1.873-.005-.315-.001-.63-.033-.944-.048-.314-.023-.629-.025-.937-.069-.62-.081-1.233-.105-1.826-.217-.59-.092-1.164-.167-1.702-.286-.541-.111-1.059-.192-1.526-.316-.469-.117-.907-.212-1.295-.3-.377-.111-.713-.198-.988-.274-.554-.148-.876-.225-.876-.225s.289.149.807.394c.257.125.571.274.94.439.369.148.793.309 1.261.478.462.185.98.329 1.531.483.274.075.554.169.848.231.291.069.592.124.898.19.611.141 1.247.224 1.896.307.325.052.653.062.985.089.326.02.657.06.984.066.661.005 1.323.014 1.962-.026.648-.015 1.267-.109 1.87-.171.595-.09 1.173-.18 1.699-.309.537-.106 1.026-.252 1.481-.377A22.537 22.537 0 0 0-.765.334c.242-.098.434-.191.558-.248L0 0" style="fill:#d4a815;fill-opacity:1;fill-rule:nonzero;stroke:none" transform="translate(634.173 547.688)"/><path d="M0 0c-6.182-1.537-10.3-4.641-11.074-5.433-.522-.536-.372-2.483-.051-3.331 0 0-.85-.128-1.077-.24-.222-.117-1.456-1.207-1.456-1.207s1.056.318 1.566.357c.513.043 3.2-.447 3.945-.62.745-.169 1.731-.316 1.88-.311 0 0-.199-1.129 1.232-1.489 0 0-1.07 1.377.575 2.05 0 0 3.063-.521 3.544-.503.478.019 1.514.413 2.253.911 1.26.843 3.372 2.792 3.893 2.891 0 0-3.806.405-5.714.157-1.904-.251-2.577-.771-3.194-1.124-.615-.353-1.615-.974-2.949-1.452-.556-.199-1.989.208-2.494 1.173-.509.963-.946 2.606.151 3.344 0 0 1.866 2.221 8.97 4.827" style="fill:#202958;fill-opacity:1;fill-rule:nonzero;stroke:none" transform="translate(593.834 537.523)"/><path d="M0 0s1.159-2.962 5.332-.469c.75.447 1.757.384 1.774.087.009-.141-.465-.841-1.29-1.507-.647-.528-2.993-2.234-3.299-4.208-.302-1.973.258-3.925 1.66-5.042 1.396-1.121 12.2-4.473 18.516 5.376 0 0-1.16-5.592-.791-6.941.362-1.344 2.836-4.324 3.074-6.349.238-2.026.171-4.722-2.867-5.278-3.038-.557-5.088-.747-7.451-.858-2.366-.106-5.013-1.072-5.517-1.94-.506-.87-.756-1.814.016-3.46.775-1.647 1.422-2.525 3.125-.914 1.703 1.607 5.024 4.061 13.858 1.241 0 0 4.598 2.212 7.296 5.561 0 0-1.717-4.139-7.467-7.309 0 0-10.041 4.176-14.219-5.28 0 0-5.019 2.121-5.877 11.011 0 0-.045.16.71.15 0 0 .629.082.594 1.414-.037 1.338.469 2.915 1.246 3.643 0 0 .746-2.223 2.055-2.941 0 0 2.597.213 4.374.239 1.778.026 3.389.751 4.729 1.89 1.644 1.399 1.342 3.389.446 5.48-1.152 2.689-3.721 3.535-5.319 3.155-1.598-.38-3.267-.571-5.083-.57-1.821.002-2.984-1.328-3.108-2.689-.122-1.362.022-1.359.022-1.359s-2.345.799-2.957 3.923c0 0-.594.544-1.142 2.073C2.008-10.67 1.002-7.623.899-5.807.797-3.993.456-3.742.25-3.494c0 0-1.765 1.993-.25 3.494" style="fill:#202958;fill-opacity:1;fill-rule:nonzero;stroke:none" transform="translate(568.412 522.961)"/><path d="M0 0c-1.354 4.295-2.019 8.634-1.967 12.917-.383 5.68.375 11.396 2.254 16.997 1.119 4.281 3.241 8.504 6.493 12.913.713 1.038 5.281 6.703 6.69 8.126l8.395 9.472c9.327 12.25-1.54 23.307-1.54 23.307s3.544-10.207-5.279-19.67L-1.968 48.407c-1.588-1.676-3.069-3.437-4.542-5.185-6.77-8.018-3.123-17.415-3.123-17.415s.359 8.292 5.765 11.773c0 0-11.62-17.773 3.868-37.58" style="fill:#202958;fill-opacity:1;fill-rule:nonzero;stroke:none" transform="translate(586.042 429.61)"/></g><g clip-path="url(#l)" transform="matrix(1.05353 0 0 -1.05353 -592.66 582.845)"><path d="M0 0c-1.409-1.423-5.977-7.088-6.691-8.126-3.251-4.409-5.374-8.631-6.493-12.913-1.878-5.6-2.636-11.317-2.253-16.997-.052-4.282.613-8.622 1.967-12.917 0 0-16.609 26.249 13.47 50.953" style="fill:#d4a815;fill-opacity:1;fill-rule:nonzero;stroke:none" transform="translate(599.513 480.563)"/><path d="M0 0c-.091-.581-.095-1.094.016-1.58.043-.22.13-.49.206-.639.057-.122.105-.269.159-.372l.161-.236.189-.253.208-.225.221-.198.236-.165a3.17 3.17 0 0 1 .497-.257l.032-.013.014-.007.008-.004c.014-.009-.103.058-.051.031l.001-.003.006-.001.095-.039.191-.074c.144-.066.213-.066.288-.086.071-.012.152-.032.257-.042.092-.018.185-.042.28-.043.188-.025.377-.01.562-.009.186.007.368.034.55.069.178.047.358.085.53.154.171.063.337.14.498.227.159.087.316.181.457.3a3.3 3.3 0 0 1 .412.366c.133.13.24.28.363.429l-.079-.156c.156.307.256.441.391.641.13.175.267.345.414.501A5.945 5.945 0 0 0 9.173-.228c.386.16.78.283 1.181.352A5.874 5.874 0 0 0 12.68.08a6.197 6.197 0 0 0 1.063-.333c.339-.135.662-.305.967-.496l-1.049-.13c-.34-.055-.668-.119-.983-.197a6.91 6.91 0 0 1-1.715-.647 5.11 5.11 0 0 1-1.287-1.022 4.729 4.729 0 0 1-.474-.622l-.188-.325c-.05-.088-.124-.249-.112-.253l.004-.004-.083-.151a5.644 5.644 0 0 0-.584-.891c-.225-.272-.464-.544-.745-.766a5.64 5.64 0 0 0-.88-.618 5.022 5.022 0 0 0-.981-.435 5.928 5.928 0 0 0-1.043-.248c-.354-.043-.711-.059-1.067-.043a5.812 5.812 0 0 0-1.051.167 4.916 4.916 0 0 0-1.018.371c-.176.084-.36.179-.45.246l-.174.109-.082.058-.005.005-.062.037-.014.007-.027.025-.054.039c-.288.219-.549.47-.783.743l-.314.426-.257.461c-.14.318-.255.642-.326.976a8.595 8.595 0 0 0-.076.538c-.01.157.003.282.009.424.01.389.067.667.168.979.093.301.238.582.402.832.159.261.375.481.591.658" style="fill:#202958;fill-opacity:1;fill-rule:nonzero;stroke:none" transform="translate(564.195 504.096)"/></g><g clip-path="url(#m)" transform="matrix(1.05353 0 0 -1.05353 -592.66 582.845)"><path d="M0 0c.842-14.118-10.941-18.163-10.941-18.163-7.507 2.47-11.984.496-13.687-1.111 0 0 2.448 3.425 10.265 4.392C-5.105-13.742-.652-9.056 0 0" style="fill:#d4a815;fill-opacity:1;fill-rule:nonzero;stroke:none" transform="translate(605.322 510.732)"/><path d="m0 0 .63.91c.203.285.449.63.727 1.029.293.399.57.848.913 1.333.304.493.65 1.021.972 1.581.356.555.625 1.148.968 1.756.277.61.582 1.235.822 1.878.286.636.469 1.286.668 1.927.112.325.16.647.241.966.066.322.181.646.2.955.059.624.23 1.254.217 1.844.025.593.083 1.173.03 1.708-.03.537-.01 1.062-.094 1.522-.069.466-.104.9-.145 1.285-.089.372-.152.703-.201.974-.103.544-.144.866-.144.866s.199-.273.518-.766c.155-.246.349-.545.552-.897.168-.36.35-.768.526-1.223.207-.445.32-.955.434-1.497.051-.27.145-.543.162-.834.038-.29.043-.593.06-.897.068-.602.007-1.248-.053-1.902-.01-.327-.113-.666-.172-.997-.08-.334-.111-.671-.226-1.009-.228-.678-.445-1.358-.76-2.024-.259-.672-.684-1.324-1.028-1.955-.399-.632-.797-1.237-1.247-1.805-.412-.569-.889-1.101-1.308-1.589A33.425 33.425 0 0 0 .964.846C.673.577.413.367.251.222.089.076 0 0 0 0" style="fill:#d4a815;fill-opacity:1;fill-rule:nonzero;stroke:none" transform="translate(623.042 494.05)"/><path d="M0 0c2.719 7.004.912 14.417-2.276 18.57 0 0-.979-2.697-.61-4.521 0 0-2.287 1.198-4.212.525C-3.922 11.721-.807 6.39 0 0" style="fill:#202958;fill-opacity:1;fill-rule:nonzero;stroke:none" transform="translate(615.329 502.947)"/><path d="M0 0c7.444 3.162 13.053-1.959 13.053-1.959s-2.852.921-5.717.229c0 0 11.653-6.342 11.85-17.684C19.459-35.015 8.921-46.54 8.921-46.54s6.214 9.905 1.871 22.022c0 0 3.701-2.683 3.906-5.614 0 0 8.58 18.059-14.698 30.132" style="fill:#d4a815;fill-opacity:1;fill-rule:nonzero;stroke:none" transform="translate(637.268 540.108)"/><path d="M0 0s-3.551 10.232 1.971 18.728c0 0-1.449 2.574-2.816 3.091 0 0-7.284-9.936.845-21.819" style="fill:#d4a815;fill-opacity:1;fill-rule:nonzero;stroke:none" transform="translate(643.952 487.193)"/><path d="m0 0-.216-.207c-.84-.763-4.023-3.449-6.539-2.832-2.938.724-4.944 8.018-4.944 8.018s-.156-6.818-6.02-10.037c-6.835-3.76-14.011-1.66-15.857-.66-.548.367 3.556-5.429 10.94-6.667-9.101-.418-18.381 2.287-25.992 8.313a37.818 37.818 0 0 0-4.84 4.581 17.363 17.363 0 0 1 4.011-1.654c5.43-1.488 9.08-1.078 9.08-1.078s-5.922 4.137-7.701 11.583h-.002c-.072.9-.141 1.663-.193 2.309.013 3.923 4.818 8.78 4.818 8.78s-5.376-2.24-10.682 2.441c-5.311 4.681-2.868 11.106-2.868 11.106s-4.138-6.336-5.667-9.31c.026 7.434.647 14.942 5.385 21.358-.564-.588-1.128-1.168-1.643-1.806-11.548-14.211-9.184-39.117 7.151-52.045 12.699-10.049 30.064-10.881 43.427-3.337 1.361.775 1.968 1.303 3.176 2.346l.011.007c3.156 3.426 3.849 5.249 4.639 7.302C-.112-.576 0 0 0 0" style="fill:#202958;fill-opacity:1;fill-rule:nonzero;stroke:none" transform="translate(672.308 415.599)"/></g></svg>